<svg id="Calque_1" data-name="Calque 1" xmlns="http://www.w3.org/2000/svg" viewBox="0 0 140.33 56.36"><defs><style>.cls-1{fill:none;stroke:#fff;stroke-miterlimit:10;}.cls-2{font-size:22px;fill:#fff;font-family:Warnes-Regular, Warnes;}</style></defs><title>logo-zanzibar</title><path class="cls-1" d="M20.75,48.87A74.34,74.34,0,0,1,51.63,35.58c18.78-3.18,30.75,3,48.05,5.56,14.1,2.08,34.51,2.16,60.93-7.56" transform="translate(-20.46 -7.91)"/><path class="cls-1" d="M20.75,53.87A74.34,74.34,0,0,1,51.63,40.58c18.78-3.18,30.75,3,48.05,5.56,14.1,2.08,34.51,2.16,60.93-7.56" transform="translate(-20.46 -7.91)"/><path class="cls-1" d="M20.75,58.86A74.34,74.34,0,0,1,51.63,45.58c18.78-3.18,30.75,3,48.05,5.56,14.1,2.08,34.51,2.16,60.93-7.56" transform="translate(-20.46 -7.91)"/><path class="cls-1" d="M20.75,63.86A74.34,74.34,0,0,1,51.63,50.58c18.78-3.18,30.75,3,48.05,5.56,14.1,2.08,34.51,2.16,60.93-7.56" transform="translate(-20.46 -7.91)"/><text class="cls-2" transform="translate(9.58 18.81)">Zanzibar</text></svg>